STARTFONT 2.1
FONT -FontForge-Futura Hv BT-Book-R-Normal--18-170-75-75-P-104-ISO10646-1
SIZE 17 75 75
FONTBOUNDINGBOX 17 18 0 -4
COMMENT "Generated by fontforge, http://fontforge.sourceforge.net"
COMMENT "Copyright 1990-1993 Bitstream Inc.  All rights reserved."
STARTPROPERTIES 39
FOUNDRY "FontForge"
FAMILY_NAME "Futura Hv BT"
WEIGHT_NAME "Book"
SLANT "R"
SETWIDTH_NAME "Normal"
ADD_STYLE_NAME ""
PIXEL_SIZE 18
POINT_SIZE 170
RESOLUTION_X 75
RESOLUTION_Y 75
SPACING "P"
AVERAGE_WIDTH 104
CHARSET_REGISTRY "ISO10646"
CHARSET_ENCODING "1"
FONTNAME_REGISTRY ""
CHARSET_COLLECTIONS "ISO10646-1"
FONT_NAME "FuturaBT-Heavy"
FACE_NAME "Futura Heavy BT"
COPYRIGHT "Copyright 1990-1993 Bitstream Inc.  All rights reserved."
FONT_VERSION "mfgpctt-v1.52 Tuesday, January 12, 1993 3:42:48 pm (EST)"
FONT_ASCENT 14
FONT_DESCENT 4
UNDERLINE_POSITION -3
UNDERLINE_THICKNESS 2
X_HEIGHT 8
CAP_HEIGHT 12
RAW_ASCENT 799
RAW_DESCENT 200
RELATIVE_WEIGHT 40
RELATIVE_SETWIDTH 50
SUPERSCRIPT_X 0
SUPERSCRIPT_Y 5
SUPERSCRIPT_SIZE 10
SUBSCRIPT_X 0
SUBSCRIPT_Y -3
SUBSCRIPT_SIZE 10
FIGURE_WIDTH 11
AVG_LOWERCASE_WIDTH 95
AVG_UPPERCASE_WIDTH 121
ENDPROPERTIES
CHARS 96
STARTCHAR exclam
ENCODING 33
SWIDTH 335 0
DWIDTH 6 0
BBX 3 13 2 0
BITMAP
E0
E0
E0
E0
E0
E0
E0
E0
E0
00
E0
E0
E0
ENDCHAR
STARTCHAR quotedbl
ENCODING 34
SWIDTH 331 0
DWIDTH 6 0
BBX 5 5 0 8
BITMAP
D8
D8
D8
D8
D8
ENDCHAR
STARTCHAR numbersign
ENCODING 35
SWIDTH 769 0
DWIDTH 14 0
BBX 13 13 0 0
BITMAP
0330
0660
0660
0660
3FF8
7FF8
0CC0
1980
7FF0
FFE0
3300
3300
6600
ENDCHAR
STARTCHAR dollar
ENCODING 36
SWIDTH 612 0
DWIDTH 11 0
BBX 9 15 1 -1
BITMAP
0800
3E00
7F80
EB00
E800
F800
7C00
1F00
0F80
0B80
4B80
EB80
FF00
3E00
0800
ENDCHAR
STARTCHAR percent
ENCODING 37
SWIDTH 845 0
DWIDTH 15 0
BBX 15 13 0 0
BITMAP
7810
CC20
CC20
CC40
CC80
CC80
793C
0266
0266
0466
0866
0866
103C
ENDCHAR
STARTCHAR ampersand
ENCODING 38
SWIDTH 714 0
DWIDTH 13 0
BBX 12 13 1 0
BITMAP
3E00
7F00
6300
6300
7700
3E00
3C00
7E60
EFF0
E3C0
E3C0
7FE0
3CF0
ENDCHAR
STARTCHAR quotesingle
ENCODING 39
SWIDTH 171 0
DWIDTH 3 0
BBX 2 5 1 8
BITMAP
C0
C0
C0
C0
C0
ENDCHAR
STARTCHAR parenleft
ENCODING 40
SWIDTH 335 0
DWIDTH 6 0
BBX 4 17 1 -4
BITMAP
30
60
60
60
C0
C0
C0
C0
C0
C0
C0
C0
C0
60
60
60
30
ENDCHAR
STARTCHAR parenright
ENCODING 41
SWIDTH 335 0
DWIDTH 6 0
BBX 4 17 1 -4
BITMAP
C0
60
60
60
30
30
30
30
30
30
30
30
30
60
60
60
C0
ENDCHAR
STARTCHAR asterisk
ENCODING 42
SWIDTH 475 0
DWIDTH 9 0
BBX 5 6 1 7
BITMAP
20
A8
70
70
A8
20
ENDCHAR
STARTCHAR plus
ENCODING 43
SWIDTH 833 0
DWIDTH 15 0
BBX 10 10 3 0
BITMAP
0C00
0C00
0C00
0C00
FFC0
FFC0
0C00
0C00
0C00
0C00
ENDCHAR
STARTCHAR comma
ENCODING 44
SWIDTH 307 0
DWIDTH 6 0
BBX 4 6 1 -3
BITMAP
70
60
60
60
C0
C0
ENDCHAR
STARTCHAR hyphen
ENCODING 45
SWIDTH 416 0
DWIDTH 8 0
BBX 5 2 1 3
BITMAP
F8
F8
ENDCHAR
STARTCHAR period
ENCODING 46
SWIDTH 307 0
DWIDTH 6 0
BBX 3 3 1 0
BITMAP
E0
E0
E0
ENDCHAR
STARTCHAR slash
ENCODING 47
SWIDTH 454 0
DWIDTH 8 0
BBX 8 15 0 -2
BITMAP
03
02
06
06
0C
0C
18
18
18
30
30
60
60
40
C0
ENDCHAR
STARTCHAR zero
ENCODING 48
SWIDTH 612 0
DWIDTH 11 0
BBX 10 13 1 0
BITMAP
1E00
3F80
7380
E1C0
E1C0
E1C0
E1C0
E1C0
E1C0
E1C0
7380
7F80
1E00
ENDCHAR
STARTCHAR one
ENCODING 49
SWIDTH 612 0
DWIDTH 11 0
BBX 6 13 2 0
BITMAP
7C
FC
1C
1C
1C
1C
1C
1C
1C
1C
1C
1C
1C
ENDCHAR
STARTCHAR two
ENCODING 50
SWIDTH 612 0
DWIDTH 11 0
BBX 9 13 1 0
BITMAP
3E00
7F00
E380
E380
0380
0700
0700
0E00
1C00
1800
3800
7F80
FF80
ENDCHAR
STARTCHAR three
ENCODING 51
SWIDTH 612 0
DWIDTH 11 0
BBX 9 13 1 0
BITMAP
3E00
7F00
E380
0380
0380
0F00
0F00
0380
0380
E380
E380
7F00
3E00
ENDCHAR
STARTCHAR four
ENCODING 52
SWIDTH 612 0
DWIDTH 11 0
BBX 10 13 0 0
BITMAP
0380
0780
0F80
0F80
1B80
1B80
3380
6380
6380
FFC0
FFC0
0380
0380
ENDCHAR
STARTCHAR five
ENCODING 53
SWIDTH 612 0
DWIDTH 11 0
BBX 9 13 1 0
BITMAP
3F80
3F80
6000
6000
7E00
7F00
C780
0380
0380
0380
8780
FF00
7C00
ENDCHAR
STARTCHAR six
ENCODING 54
SWIDTH 612 0
DWIDTH 11 0
BBX 10 13 1 0
BITMAP
0F00
0E00
1C00
3800
3800
7F00
7F80
F3C0
E1C0
E1C0
F3C0
7F80
3E00
ENDCHAR
STARTCHAR seven
ENCODING 55
SWIDTH 612 0
DWIDTH 11 0
BBX 9 13 1 0
BITMAP
FF80
FF80
0700
0700
0600
0E00
0C00
1C00
1800
3800
3800
7000
7000
ENDCHAR
STARTCHAR eight
ENCODING 56
SWIDTH 612 0
DWIDTH 11 0
BBX 9 13 1 0
BITMAP
3E00
7F00
E380
E380
E380
7F00
3F00
6380
E380
E380
E380
7F00
3E00
ENDCHAR
STARTCHAR nine
ENCODING 57
SWIDTH 612 0
DWIDTH 11 0
BBX 10 13 1 0
BITMAP
3F00
7F80
F3C0
E1C0
E1C0
F3C0
7F80
3F80
0700
0700
0E00
1C00
3C00
ENDCHAR
STARTCHAR colon
ENCODING 58
SWIDTH 335 0
DWIDTH 6 0
BBX 3 9 2 0
BITMAP
E0
E0
E0
00
00
00
E0
E0
E0
ENDCHAR
STARTCHAR semicolon
ENCODING 59
SWIDTH 335 0
DWIDTH 6 0
BBX 4 12 1 -3
BITMAP
70
70
70
00
00
00
70
60
60
C0
C0
80
ENDCHAR
STARTCHAR less
ENCODING 60
SWIDTH 833 0
DWIDTH 15 0
BBX 10 10 2 0
BITMAP
0040
03C0
0F00
3C00
F000
F000
3C00
0F00
03C0
0040
ENDCHAR
STARTCHAR equal
ENCODING 61
SWIDTH 833 0
DWIDTH 15 0
BBX 11 6 2 2
BITMAP
FFE0
FFE0
0000
0000
FFE0
FFE0
ENDCHAR
STARTCHAR greater
ENCODING 62
SWIDTH 833 0
DWIDTH 15 0
BBX 10 10 2 0
BITMAP
8000
F000
3C00
0F00
03C0
03C0
0F00
3C00
F000
8000
ENDCHAR
STARTCHAR question
ENCODING 63
SWIDTH 579 0
DWIDTH 10 0
BBX 8 13 1 0
BITMAP
3C
7E
E7
E7
07
3E
38
38
38
00
38
38
38
ENDCHAR
STARTCHAR at
ENCODING 64
SWIDTH 1000 0
DWIDTH 18 0
BBX 16 16 1 -3
BITMAP
03F0
0C0C
3006
2002
43D9
4631
8631
8C31
8C31
8C62
8C64
47B8
4000
2004
181E
07F0
ENDCHAR
STARTCHAR A
ENCODING 65
SWIDTH 712 0
DWIDTH 13 0
BBX 13 13 0 0
BITMAP
0700
0F80
0F80
0D80
1DC0
19C0
38E0
38E0
3FE0
7FF0
7070
6070
E038
ENDCHAR
STARTCHAR B
ENCODING 66
SWIDTH 597 0
DWIDTH 11 0
BBX 9 13 1 0
BITMAP
FE00
FF00
E380
E380
E380
FE00
FF00
E380
E380
E380
E380
FF00
FE00
ENDCHAR
STARTCHAR C
ENCODING 67
SWIDTH 717 0
DWIDTH 13 0
BBX 11 13 1 0
BITMAP
0FC0
3FE0
7860
7020
E000
E000
E000
E000
E000
7020
7860
3FE0
0FC0
ENDCHAR
STARTCHAR D
ENCODING 68
SWIDTH 752 0
DWIDTH 14 0
BBX 11 13 1 0
BITMAP
FE00
FF80
E3C0
E1C0
E0E0
E0E0
E0E0
E0E0
E0E0
E1C0
E3C0
FF80
FE00
ENDCHAR
STARTCHAR E
ENCODING 69
SWIDTH 570 0
DWIDTH 10 0
BBX 8 13 1 0
BITMAP
FF
FF
E0
E0
E0
FF
FF
E0
E0
E0
E0
FF
FF
ENDCHAR
STARTCHAR F
ENCODING 70
SWIDTH 539 0
DWIDTH 10 0
BBX 8 13 1 0
BITMAP
FF
FF
E0
E0
E0
FF
FF
E0
E0
E0
E0
E0
E0
ENDCHAR
STARTCHAR G
ENCODING 71
SWIDTH 803 0
DWIDTH 14 0
BBX 13 13 1 0
BITMAP
0FC0
3FE0
7870
7020
E000
E000
E1F8
E1F8
E038
7030
7870
3FE0
0FC0
ENDCHAR
STARTCHAR H
ENCODING 72
SWIDTH 774 0
DWIDTH 14 0
BBX 11 13 1 0
BITMAP
E0E0
E0E0
E0E0
E0E0
E0E0
FFE0
FFE0
E0E0
E0E0
E0E0
E0E0
E0E0
E0E0
ENDCHAR
STARTCHAR I
ENCODING 73
SWIDTH 318 0
DWIDTH 6 0
BBX 3 13 1 0
BITMAP
E0
E0
E0
E0
E0
E0
E0
E0
E0
E0
E0
E0
E0
ENDCHAR
STARTCHAR J
ENCODING 74
SWIDTH 443 0
DWIDTH 8 0
BBX 7 13 0 0
BITMAP
0E
0E
0E
0E
0E
0E
0E
0E
0E
4E
CE
FC
78
ENDCHAR
STARTCHAR K
ENCODING 75
SWIDTH 647 0
DWIDTH 12 0
BBX 10 13 1 0
BITMAP
E1C0
E380
E700
E600
EE00
FC00
FC00
EE00
EE00
E700
E300
E380
E1C0
ENDCHAR
STARTCHAR L
ENCODING 76
SWIDTH 493 0
DWIDTH 9 0
BBX 7 13 1 0
BITMAP
E0
E0
E0
E0
E0
E0
E0
E0
E0
E0
E0
FE
FE
ENDCHAR
STARTCHAR M
ENCODING 77
SWIDTH 888 0
DWIDTH 16 0
BBX 15 13 0 0
BITMAP
3838
3838
3C78
7C7C
7C7C
6C6C
66CC
66CC
66CC
638C
E38E
E38E
E10E
ENDCHAR
STARTCHAR N
ENCODING 78
SWIDTH 833 0
DWIDTH 15 0
BBX 12 13 1 0
BITMAP
E070
F070
F870
F870
FC70
EE70
E670
E770
E3F0
E1F0
E0F0
E0F0
E070
ENDCHAR
STARTCHAR O
ENCODING 79
SWIDTH 860 0
DWIDTH 16 0
BBX 14 13 1 0
BITMAP
0FC0
1FE0
7878
7038
E01C
E01C
E01C
E01C
E01C
7038
7878
1FE0
0FC0
ENDCHAR
STARTCHAR P
ENCODING 80
SWIDTH 556 0
DWIDTH 10 0
BBX 8 13 1 0
BITMAP
FC
FE
E7
E7
E7
E7
FE
FC
E0
E0
E0
E0
E0
ENDCHAR
STARTCHAR Q
ENCODING 81
SWIDTH 860 0
DWIDTH 16 0
BBX 14 15 1 -2
BITMAP
0FC0
1FE0
7870
7038
E01C
E01C
E01C
E01C
E01C
73F8
78F8
1FF0
0FF0
0038
001C
ENDCHAR
STARTCHAR R
ENCODING 82
SWIDTH 605 0
DWIDTH 11 0
BBX 10 13 1 0
BITMAP
FE00
FF00
E380
E380
E380
FF00
FE00
FC00
EE00
EF00
E700
E780
E3C0
ENDCHAR
STARTCHAR S
ENCODING 83
SWIDTH 560 0
DWIDTH 10 0
BBX 9 13 1 0
BITMAP
3F00
7F80
E300
E000
F000
7C00
1F00
0780
0380
4380
C780
FF00
3E00
ENDCHAR
STARTCHAR T
ENCODING 84
SWIDTH 541 0
DWIDTH 10 0
BBX 9 13 0 0
BITMAP
FF80
FF80
1C00
1C00
1C00
1C00
1C00
1C00
1C00
1C00
1C00
1C00
1C00
ENDCHAR
STARTCHAR U
ENCODING 85
SWIDTH 772 0
DWIDTH 14 0
BBX 11 13 1 0
BITMAP
E0E0
E0E0
E0E0
E0E0
E0E0
E0E0
E0E0
E0E0
E0E0
E0E0
F1E0
7FC0
1F00
ENDCHAR
STARTCHAR V
ENCODING 86
SWIDTH 668 0
DWIDTH 12 0
BBX 11 13 0 0
BITMAP
E0E0
E0E0
60C0
71C0
71C0
3180
3180
3B80
1B00
1B00
1F00
0E00
0E00
ENDCHAR
STARTCHAR W
ENCODING 87
SWIDTH 1004 0
DWIDTH 18 0
BBX 17 13 0 0
BITMAP
E1C380
E1C380
614300
636300
736700
736700
736700
363600
363600
3E3E00
3E3E00
1C1C00
1C1C00
ENDCHAR
STARTCHAR X
ENCODING 88
SWIDTH 600 0
DWIDTH 11 0
BBX 11 13 0 0
BITMAP
E0E0
71C0
3180
3B80
1B00
0E00
0E00
1F00
1B00
3B80
71C0
71C0
E0E0
ENDCHAR
STARTCHAR Y
ENCODING 89
SWIDTH 605 0
DWIDTH 11 0
BBX 11 13 0 0
BITMAP
E0E0
71C0
71C0
3B80
1B00
1F00
0E00
0E00
0E00
0E00
0E00
0E00
0E00
ENDCHAR
STARTCHAR Z
ENCODING 90
SWIDTH 633 0
DWIDTH 11 0
BBX 11 13 0 0
BITMAP
7FE0
7FC0
0380
0380
0700
0700
0E00
1C00
1C00
3800
3800
7FE0
FFE0
ENDCHAR
STARTCHAR bracketleft
ENCODING 91
SWIDTH 335 0
DWIDTH 6 0
BBX 4 17 2 -4
BITMAP
F0
F0
C0
C0
C0
C0
C0
C0
C0
C0
C0
C0
C0
C0
C0
F0
F0
ENDCHAR
STARTCHAR backslash
ENCODING 92
SWIDTH 454 0
DWIDTH 8 0
BBX 8 15 0 -2
BITMAP
C0
40
60
60
30
30
18
18
18
0C
0C
06
06
02
03
ENDCHAR
STARTCHAR bracketright
ENCODING 93
SWIDTH 335 0
DWIDTH 6 0
BBX 4 17 1 -4
BITMAP
F0
F0
30
30
30
30
30
30
30
30
30
30
30
30
30
F0
F0
ENDCHAR
STARTCHAR asciicircum
ENCODING 94
SWIDTH 1000 0
DWIDTH 18 0
BBX 11 5 4 8
BITMAP
0E00
1F00
3B80
71C0
E0E0
ENDCHAR
STARTCHAR underscore
ENCODING 95
SWIDTH 500 0
DWIDTH 9 0
BBX 9 1 0 -4
BITMAP
FF80
ENDCHAR
STARTCHAR grave
ENCODING 96
SWIDTH 500 0
DWIDTH 9 0
BBX 4 3 2 10
BITMAP
E0
60
30
ENDCHAR
STARTCHAR a
ENCODING 97
SWIDTH 610 0
DWIDTH 11 0
BBX 9 9 1 0
BITMAP
3B80
7F80
F380
E380
E380
E380
F380
7F80
3B80
ENDCHAR
STARTCHAR b
ENCODING 98
SWIDTH 616 0
DWIDTH 11 0
BBX 9 13 1 0
BITMAP
E000
E000
E000
E000
EE00
FF00
E780
E380
E380
E380
E780
FF00
EE00
ENDCHAR
STARTCHAR c
ENCODING 99
SWIDTH 458 0
DWIDTH 8 0
BBX 7 9 1 0
BITMAP
3E
7E
F2
E0
E0
E0
F2
7E
3E
ENDCHAR
STARTCHAR d
ENCODING 100
SWIDTH 616 0
DWIDTH 11 0
BBX 9 13 1 0
BITMAP
0380
0380
0380
0380
3B80
7F80
F380
E380
E380
E380
F380
7F80
3B80
ENDCHAR
STARTCHAR e
ENCODING 101
SWIDTH 573 0
DWIDTH 10 0
BBX 9 9 1 0
BITMAP
3E00
7F00
F380
E380
FF80
E000
F000
7F80
3E00
ENDCHAR
STARTCHAR f
ENCODING 102
SWIDTH 331 0
DWIDTH 6 0
BBX 6 13 1 0
BITMAP
3C
7C
70
70
FC
FC
70
70
70
70
70
70
70
ENDCHAR
STARTCHAR g
ENCODING 103
SWIDTH 616 0
DWIDTH 11 0
BBX 9 13 1 -4
BITMAP
3B80
7F80
F380
E380
E380
E380
F380
7F80
3B80
0380
0380
FF00
7E00
ENDCHAR
STARTCHAR h
ENCODING 104
SWIDTH 618 0
DWIDTH 11 0
BBX 9 13 1 0
BITMAP
E000
E000
E000
E000
EF00
FF80
F380
E380
E380
E380
E380
E380
E380
ENDCHAR
STARTCHAR i
ENCODING 105
SWIDTH 285 0
DWIDTH 5 0
BBX 3 14 1 0
BITMAP
E0
E0
E0
00
00
E0
E0
E0
E0
E0
E0
E0
E0
E0
ENDCHAR
STARTCHAR j
ENCODING 106
SWIDTH 285 0
DWIDTH 5 0
BBX 3 18 1 -4
BITMAP
E0
E0
E0
00
00
E0
E0
E0
E0
E0
E0
E0
E0
E0
E0
E0
E0
E0
ENDCHAR
STARTCHAR k
ENCODING 107
SWIDTH 564 0
DWIDTH 10 0
BBX 9 13 1 0
BITMAP
E000
E000
E000
E000
E380
E700
EE00
FC00
FC00
EE00
E600
E700
E380
ENDCHAR
STARTCHAR l
ENCODING 108
SWIDTH 285 0
DWIDTH 5 0
BBX 3 13 1 0
BITMAP
E0
E0
E0
E0
E0
E0
E0
E0
E0
E0
E0
E0
E0
ENDCHAR
STARTCHAR m
ENCODING 109
SWIDTH 909 0
DWIDTH 16 0
BBX 15 9 1 0
BITMAP
EF3C
FFFE
F3CE
E38E
E38E
E38E
E38E
E38E
E38E
ENDCHAR
STARTCHAR n
ENCODING 110
SWIDTH 618 0
DWIDTH 11 0
BBX 9 9 1 0
BITMAP
EF00
FF80
F380
E380
E380
E380
E380
E380
E380
ENDCHAR
STARTCHAR o
ENCODING 111
SWIDTH 608 0
DWIDTH 11 0
BBX 10 9 1 0
BITMAP
1E00
7F80
F3C0
E1C0
E1C0
E1C0
F3C0
7F80
1E00
ENDCHAR
STARTCHAR p
ENCODING 112
SWIDTH 616 0
DWIDTH 11 0
BBX 9 13 1 -4
BITMAP
EE00
FF00
E780
E380
E380
E380
E780
FF00
EE00
E000
E000
E000
E000
ENDCHAR
STARTCHAR q
ENCODING 113
SWIDTH 616 0
DWIDTH 11 0
BBX 9 13 1 -4
BITMAP
3B80
7F80
F380
E380
E380
E380
F380
7F80
3B80
0380
0380
0380
0380
ENDCHAR
STARTCHAR r
ENCODING 114
SWIDTH 407 0
DWIDTH 7 0
BBX 6 9 1 0
BITMAP
EC
FC
FC
E0
E0
E0
E0
E0
E0
ENDCHAR
STARTCHAR s
ENCODING 115
SWIDTH 456 0
DWIDTH 8 0
BBX 7 9 1 0
BITMAP
7C
C6
C0
F8
7C
3E
06
C6
7C
ENDCHAR
STARTCHAR t
ENCODING 116
SWIDTH 309 0
DWIDTH 6 0
BBX 5 12 0 0
BITMAP
70
70
70
F8
F8
70
70
70
70
70
70
70
ENDCHAR
STARTCHAR u
ENCODING 117
SWIDTH 619 0
DWIDTH 11 0
BBX 9 9 1 0
BITMAP
E380
E380
E380
E380
E380
E380
E380
7F00
3E00
ENDCHAR
STARTCHAR v
ENCODING 118
SWIDTH 514 0
DWIDTH 9 0
BBX 9 9 0 0
BITMAP
E380
E380
6300
7700
7700
3600
3E00
3E00
1C00
ENDCHAR
STARTCHAR w
ENCODING 119
SWIDTH 816 0
DWIDTH 15 0
BBX 15 9 0 0
BITMAP
E38E
E38E
729C
76DC
76DC
3ED8
3EF8
3C78
1C70
ENDCHAR
STARTCHAR x
ENCODING 120
SWIDTH 498 0
DWIDTH 9 0
BBX 9 9 0 0
BITMAP
E380
7700
3600
3E00
1C00
3E00
3600
7700
E380
ENDCHAR
STARTCHAR y
ENCODING 121
SWIDTH 514 0
DWIDTH 9 0
BBX 10 13 0 -4
BITMAP
E1C0
7180
7380
3B80
3B00
1F00
1E00
0E00
0E00
1C00
1C00
1800
3800
ENDCHAR
STARTCHAR z
ENCODING 122
SWIDTH 480 0
DWIDTH 9 0
BBX 8 9 0 0
BITMAP
7F
7E
0C
1C
18
38
30
7F
FF
ENDCHAR
STARTCHAR braceleft
ENCODING 123
SWIDTH 500 0
DWIDTH 9 0
BBX 6 17 2 -4
BITMAP
1C
3C
30
30
30
30
30
E0
E0
30
30
30
30
30
30
3C
1C
ENDCHAR
STARTCHAR bar
ENCODING 124
SWIDTH 500 0
DWIDTH 9 0
BBX 2 18 4 -4
BITMAP
C0
C0
C0
C0
C0
C0
C0
C0
C0
C0
C0
C0
C0
C0
C0
C0
C0
C0
ENDCHAR
STARTCHAR braceright
ENCODING 125
SWIDTH 500 0
DWIDTH 9 0
BBX 6 17 1 -4
BITMAP
E0
F0
30
30
30
30
30
1C
1C
30
30
30
30
30
30
F0
E0
ENDCHAR
STARTCHAR asciitilde
ENCODING 126
SWIDTH 833 0
DWIDTH 15 0
BBX 11 3 2 4
BITMAP
7C20
FFE0
83C0
ENDCHAR
STARTCHAR nonbreakingspace
ENCODING 160
SWIDTH 612 0
DWIDTH 11 0
BBX 1 1 0 0
BITMAP
00
ENDCHAR
STARTCHAR degree
ENCODING 176
SWIDTH 329 0
DWIDTH 6 0
BBX 5 5 0 8
BITMAP
70
88
88
88
70
ENDCHAR
ENDFONT
